<svg id="Layer_1" data-name="Layer 1" xmlns="http://www.w3.org/2000/svg" viewBox="0 0 497.52 793.61"><defs><style>.cls-1,.cls-10,.cls-11,.cls-12,.cls-13,.cls-14,.cls-15,.cls-16,.cls-17,.cls-18,.cls-2,.cls-3,.cls-4,.cls-5,.cls-6,.cls-7,.cls-8,.cls-9{fill:#fff;}.cls-1{opacity:0.25;}.cls-1,.cls-10,.cls-11,.cls-12,.cls-13,.cls-14,.cls-15,.cls-16,.cls-17,.cls-2,.cls-3,.cls-4,.cls-5,.cls-6,.cls-7,.cls-8,.cls-9{isolation:isolate;}.cls-2{opacity:0.3;}.cls-3{opacity:0.35;}.cls-4{opacity:0.45;}.cls-5{opacity:0.5;}.cls-6{opacity:0.55;}.cls-7{opacity:0.6;}.cls-8{opacity:0.05;}.cls-9{opacity:0.1;}.cls-10{opacity:0.2;}.cls-11{opacity:0.7;}.cls-12{opacity:0.75;}.cls-13{opacity:0.8;}.cls-14{opacity:0.9;}.cls-15{opacity:0.65;}.cls-16{opacity:0.85;}.cls-17{opacity:0.95;}</style></defs><g id="Logo"><path class="cls-1" d="M409.63,403.87,264.92,511c-.79,0-1.58.09-2.39.12L401.61,383.76Z" transform="translate(0 0)"/><path class="cls-2" d="M401.61,383.76,262.53,511.09c-.63,0-1.26.07-1.89.08L392.93,362Z" transform="translate(0 0)"/><path class="cls-3" d="M392.93,362,260.64,511.17l-1.49.07L383.29,337.75Z" transform="translate(0 0)"/><path class="cls-4" d="M383.29,337.75,259.15,511.24h-1.28L372.26,310.07Z" transform="translate(0 0)"/><path class="cls-4" d="M372.26,310.07,257.87,511.28h-1.13l102.47-234Z" transform="translate(0 0)"/><path class="cls-5" d="M359.21,277.32l-102.47,234h-1L343.16,237Z" transform="translate(0 0)"/><path class="cls-6" d="M343.16,237,255.73,511.35h-.93L322.43,185Z" transform="translate(0 0)"/><path class="cls-7" d="M322.43,185h0L254.79,511.37h-.89l40-398Z" transform="translate(0 0)"/><path class="cls-8" d="M431.83,459.6,409.71,467h0l-51.2,17.23-82.6,25.91h0l-2.31.2,151-69,5.1,12.82Z" transform="translate(0 0)"/><path class="cls-9" d="M424.57,441.36l-151,69h0q-2.64.22-5.28.39L417.21,422.9Z" transform="translate(0 0)"/><path class="cls-10" d="M417.21,422.92,268.29,510.77c-1.11.08-2.24.14-3.37.2l144.71-107.1Z" transform="translate(0 0)"/><path class="cls-11" d="M253,511.41h-.87L207.77,102.87h0L248.75,0,251,5.61h0Z" transform="translate(0 0)"/><path class="cls-12" d="M252.13,511.42h-.89l-72.41-335.9,28.94-72.67Z" transform="translate(0 0)"/><path class="cls-13" d="M251.24,511.44h-.92L157.69,228.61l21.14-53.07Z" transform="translate(0 0)"/><path class="cls-14" d="M250.32,511.45h-1L141.26,269.87l16.43-41.26Z" transform="translate(0 0)"/><path class="cls-15" d="M293.91,113.36l-40,398H253L251,5.64Z" transform="translate(0 0)"/><path class="cls-16" d="M245.57,511.45H243.8L97.53,379.65l9-22.57Z" transform="translate(0 0)"/><path class="cls-14" d="M247,511.46h-1.43l-139-154.37,10-25Z" transform="translate(0 0)"/><path class="cls-17" d="M248.23,511.45H247L116.47,332.09l11.37-28.55Z" transform="translate(0 0)"/><path class="cls-18" d="M249.34,511.45h-1.11L127.84,303.54l13.42-33.67Z" transform="translate(0 0)"/><path class="cls-13" d="M431.83,459.6,358.5,484.27l-82.3,25.82c-.79.08-1.95.23-2.63.29h0q-2.64.22-5.28.39c-1.11.08-2.24.14-3.37.2-.79,0-1.58.09-2.39.12-.63,0-1.26.07-1.89.08l-1.49.07H243.83L97.53,379.65,66.12,458.51,0,624.5H497.52Z" transform="translate(0 0)"/><polygon class="cls-18" points="137.69 264.18 40.86 109.46 128 303 147.31 282.86 137.69 264.18"/></g><g id="Text"><path class="cls-18" d="M98.76,677.15H24a12,12,0,0,0,0,24h24.8V779.8a12,12,0,0,0,24,0V701.15h26a12,12,0,0,0,0-24Z" transform="translate(0 0)"/><path class="cls-18" d="M294.68,793.61a56.15,56.15,0,0,1-17.56-2.86,59.75,59.75,0,0,1-1.2-112.15c22.53-8,46.26-1,60.43,17.82a12,12,0,0,1-19.16,14.44c-3-4-14.22-16.38-33.26-9.63-10.79,3.82-23.17,14.72-22.54,32.85l0,.42,0,.43c-.65,18.54,12.09,29.37,23.2,33,5,1.63,22.17,5.66,33.59-11.11A12,12,0,1,1,338,770.36C327.8,785.35,311.84,793.61,294.68,793.61Z" transform="translate(0 0)"/><path class="cls-18" d="M488.2,773.48,458,724.72l27.4-27a12,12,0,0,0-16.84-17.1l-47.26,46.51v-38a12,12,0,0,0-24,0v90.6a12,12,0,0,0,24,0v-19L440.43,742l27.37,44.14a12,12,0,0,0,20.4-12.64Z" transform="translate(0 0)"/><path class="cls-18" d="M187.25,692.89c.31,21.18-33,21.18-32.66,0C154.28,671.7,187.56,671.7,187.25,692.89Z" transform="translate(0 0)"/><path class="cls-18" d="M187.25,776.11c.31,21.19-33,21.19-32.66,0C154.28,754.93,187.56,754.93,187.25,776.11Z" transform="translate(0 0)"/></g></svg>