<svg xmlns="http://www.w3.org/2000/svg" xmlns:xlink="http://www.w3.org/1999/xlink" viewBox="0 0 455 113.48"><defs><style>.cls-1,.cls-2,.cls-6{fill:none;}.cls-2,.cls-6{stroke:#fff;stroke-miterlimit:10;}.cls-2{stroke-linecap:round;stroke-width:24px;}.cls-3{fill:#fff;}.cls-4{clip-path:url(#clip-path);}.cls-5{opacity:0.14;}</style><clipPath id="clip-path"><rect class="cls-1" x="-1754" y="-1149.23" width="1024" height="1785"/></clipPath></defs><g id="AB3_Text" data-name="AB3 Text"><g id="Text"><line class="cls-2" x1="12" y1="13.72" x2="83" y2="13.72"/><line class="cls-2" x1="46.94" y1="99.77" x2="46.94" y2="15.77"/><path class="cls-2" d="M300.71,84.4c-23,33.8-76.18,13.69-74.71-27.63-1.41-40.22,49.47-61.09,73.44-29.3"/><line class="cls-2" x1="377.76" y1="13.77" x2="377.76" y2="99.77"/><line class="cls-2" x1="442" y1="13.77" x2="379" y2="75.77"/><line class="cls-2" x1="443" y1="99.77" x2="412" y2="49.77"/><path class="cls-3" d="M167,17.27c.29,20.11-31.3,20.11-31,0C135.71-2.84,167.3-2.84,167,17.27Z"/><path class="cls-3" d="M167,96.27c.29,20.11-31.3,20.11-31,0C135.71,76.16,167.3,76.16,167,96.27Z"/></g></g><g id="AB1_Background" data-name="AB1 Background"><g id="Blend"><g class="cls-4"><g class="cls-5"><line class="cls-6" x1="6.66" y1="-526.57" x2="-1461.84" y2="941.93"/><line class="cls-6" x1="13.72" y1="-519.5" x2="-1454.78" y2="949"/><line class="cls-6" x1="20.78" y1="-512.44" x2="-1447.72" y2="956.06"/><line class="cls-6" x1="27.84" y1="-505.38" x2="-1440.66" y2="963.12"/><line class="cls-6" x1="34.91" y1="-498.32" x2="-1433.59" y2="970.18"/><line class="cls-6" x1="41.97" y1="-491.26" x2="-1426.53" y2="977.24"/><line class="cls-6" x1="49.03" y1="-484.2" x2="-1419.47" y2="984.3"/><line class="cls-6" x1="56.09" y1="-477.14" x2="-1412.41" y2="991.36"/><line class="cls-6" x1="63.15" y1="-470.08" x2="-1405.35" y2="998.42"/><line class="cls-6" x1="70.21" y1="-463.02" x2="-1398.29" y2="1005.48"/><line class="cls-6" x1="77.27" y1="-455.96" x2="-1391.23" y2="1012.54"/><line class="cls-6" x1="84.33" y1="-448.9" x2="-1384.17" y2="1019.6"/><line class="cls-6" x1="91.39" y1="-441.83" x2="-1377.11" y2="1026.67"/><line class="cls-6" x1="98.45" y1="-434.77" x2="-1370.05" y2="1033.73"/><line class="cls-6" x1="105.51" y1="-427.71" x2="-1362.99" y2="1040.79"/><line class="cls-6" x1="112.58" y1="-420.65" x2="-1355.92" y2="1047.85"/><line class="cls-6" x1="119.64" y1="-413.59" x2="-1348.86" y2="1054.91"/><line class="cls-6" x1="126.7" y1="-406.53" x2="-1341.8" y2="1061.97"/><line class="cls-6" x1="133.76" y1="-399.47" x2="-1334.74" y2="1069.03"/><line class="cls-6" x1="140.82" y1="-392.41" x2="-1327.68" y2="1076.09"/><line class="cls-6" x1="147.88" y1="-385.35" x2="-1320.62" y2="1083.15"/><line class="cls-6" x1="154.94" y1="-378.29" x2="-1313.56" y2="1090.21"/><line class="cls-6" x1="162" y1="-371.23" x2="-1306.5" y2="1097.27"/><line class="cls-6" x1="169.06" y1="-364.16" x2="-1299.44" y2="1104.34"/><line class="cls-6" x1="176.12" y1="-357.1" x2="-1292.38" y2="1111.4"/><line class="cls-6" x1="183.18" y1="-350.04" x2="-1285.32" y2="1118.46"/><line class="cls-6" x1="190.25" y1="-342.98" x2="-1278.25" y2="1125.52"/><line class="cls-6" x1="197.31" y1="-335.92" x2="-1271.19" y2="1132.58"/><line class="cls-6" x1="204.37" y1="-328.86" x2="-1264.13" y2="1139.64"/><line class="cls-6" x1="211.43" y1="-321.8" x2="-1257.07" y2="1146.7"/><line class="cls-6" x1="218.49" y1="-314.74" x2="-1250.01" y2="1153.76"/><line class="cls-6" x1="225.55" y1="-307.68" x2="-1242.95" y2="1160.82"/><line class="cls-6" x1="232.61" y1="-300.62" x2="-1235.89" y2="1167.88"/><line class="cls-6" x1="239.67" y1="-293.56" x2="-1228.83" y2="1174.94"/><line class="cls-6" x1="246.73" y1="-286.49" x2="-1221.77" y2="1182.01"/><line class="cls-6" x1="253.79" y1="-279.43" x2="-1214.71" y2="1189.07"/><line class="cls-6" x1="260.86" y1="-272.37" x2="-1207.64" y2="1196.13"/><line class="cls-6" x1="267.92" y1="-265.31" x2="-1200.58" y2="1203.19"/><line class="cls-6" x1="274.98" y1="-258.25" x2="-1193.52" y2="1210.25"/><line class="cls-6" x1="282.04" y1="-251.19" x2="-1186.46" y2="1217.31"/><line class="cls-6" x1="289.1" y1="-244.13" x2="-1179.4" y2="1224.37"/><line class="cls-6" x1="296.16" y1="-237.07" x2="-1172.34" y2="1231.43"/><line class="cls-6" x1="303.22" y1="-230.01" x2="-1165.28" y2="1238.49"/><line class="cls-6" x1="310.28" y1="-222.95" x2="-1158.22" y2="1245.55"/><line class="cls-6" x1="317.34" y1="-215.88" x2="-1151.16" y2="1252.62"/><line class="cls-6" x1="324.4" y1="-208.82" x2="-1144.1" y2="1259.68"/><line class="cls-6" x1="331.46" y1="-201.76" x2="-1137.04" y2="1266.74"/><line class="cls-6" x1="338.53" y1="-194.7" x2="-1129.97" y2="1273.8"/><line class="cls-6" x1="345.59" y1="-187.64" x2="-1122.91" y2="1280.86"/><line class="cls-6" x1="352.65" y1="-180.58" x2="-1115.85" y2="1287.92"/><line class="cls-6" x1="359.71" y1="-173.52" x2="-1108.79" y2="1294.98"/><line class="cls-6" x1="366.77" y1="-166.46" x2="-1101.73" y2="1302.04"/><line class="cls-6" x1="373.83" y1="-159.4" x2="-1094.67" y2="1309.1"/><line class="cls-6" x1="380.89" y1="-152.34" x2="-1087.61" y2="1316.16"/><line class="cls-6" x1="387.95" y1="-145.28" x2="-1080.55" y2="1323.22"/><line class="cls-6" x1="395.01" y1="-138.21" x2="-1073.49" y2="1330.29"/><line class="cls-6" x1="402.07" y1="-131.15" x2="-1066.43" y2="1337.35"/><line class="cls-6" x1="409.13" y1="-124.09" x2="-1059.37" y2="1344.41"/><line class="cls-6" x1="416.2" y1="-117.03" x2="-1052.3" y2="1351.47"/><line class="cls-6" x1="423.26" y1="-109.97" x2="-1045.24" y2="1358.53"/><line class="cls-6" x1="430.32" y1="-102.91" x2="-1038.18" y2="1365.59"/><line class="cls-6" x1="437.38" y1="-95.85" x2="-1031.12" y2="1372.65"/><line class="cls-6" x1="444.44" y1="-88.79" x2="-1024.06" y2="1379.71"/><line class="cls-6" x1="451.5" y1="-81.73" x2="-1017" y2="1386.77"/></g></g></g></g></svg>