<svg xmlns="http://www.w3.org/2000/svg" xmlns:xlink="http://www.w3.org/1999/xlink" viewBox="0 0 1024 1024"><defs><style>.cls-1,.cls-25{fill:none;}.cls-2{isolation:isolate;}.cls-3{mix-blend-mode:overlay;fill:url(#linear-gradient);}.cls-10,.cls-11,.cls-12,.cls-13,.cls-14,.cls-15,.cls-16,.cls-17,.cls-18,.cls-19,.cls-20,.cls-21,.cls-22,.cls-4,.cls-5,.cls-6,.cls-7,.cls-8,.cls-9{fill:#fff;}.cls-4{opacity:0.25;}.cls-5{opacity:0.3;}.cls-6{opacity:0.35;}.cls-7{opacity:0.4;}.cls-8{opacity:0.45;}.cls-9{opacity:0.5;}.cls-10{opacity:0.55;}.cls-11{opacity:0.6;}.cls-12{opacity:0.05;}.cls-13{opacity:0.1;}.cls-14{opacity:0.2;}.cls-15{opacity:0.7;}.cls-16{opacity:0.75;}.cls-17{opacity:0.8;}.cls-18{opacity:0.9;}.cls-19{opacity:0.65;}.cls-20{opacity:0.85;}.cls-21{opacity:0.95;}.cls-23{clip-path:url(#clip-path);}.cls-24{opacity:0.14;}.cls-25{stroke:#fff;stroke-miterlimit:10;}</style><linearGradient id="linear-gradient" x1="-1" y1="512" x2="1023" y2="512" gradientUnits="userSpaceOnUse"><stop offset="0" stop-color="#164440"/><stop offset="1" stop-color="#0e0e2c"/></linearGradient><clipPath id="clip-path"><rect class="cls-1" x="-1189" y="2" width="1024" height="1785"/></clipPath></defs><g class="cls-2"><g id="AB2_App_Icon" data-name="AB2 App Icon"><g id="Background"><rect class="cls-3" x="-1" width="1024" height="1024" rx="227.79"/></g><g id="Logo"><path class="cls-4" d="M674.63,561.87,529.92,669c-.79,0-1.58.09-2.39.12L666.61,541.76Z"/><path class="cls-5" d="M666.61,541.76,527.53,669.09c-.63,0-1.26.07-1.89.08L657.93,520Z"/><path class="cls-6" d="M657.93,520,525.64,669.17l-1.49.07L648.29,495.75Z"/><path class="cls-7" d="M648.29,495.75,524.15,669.24l-1.28,0L637.26,468.07Z"/><path class="cls-8" d="M637.26,468.07,522.87,669.28c-.37,0-.76,0-1.13,0l102.47-234Z"/><path class="cls-9" d="M624.21,435.32l-102.47,234-1,0L608.16,395Z"/><path class="cls-10" d="M608.16,395,520.73,669.35h0l-.93,0L587.43,343Z"/><path class="cls-11" d="M587.43,343h0L519.79,669.37l-.89,0,40-398Z"/><path class="cls-12" d="M696.83,617.6,674.71,625h0l-51.2,17.23-82.6,25.91h0l-2.31.2,151-69,5.1,12.82Z"/><path class="cls-13" d="M689.57,599.36l-151,69h0q-2.64.23-5.28.39l148.92-87.85Z"/><path class="cls-14" d="M682.21,580.92,533.29,668.77c-1.11.08-2.24.14-3.37.2l144.71-107.1Z"/><path class="cls-15" d="M518,669.41h-.87L472.77,260.87v0l41-102.85,2.26,5.61v0Z"/><path class="cls-16" d="M517.13,669.42l-.89,0-72.41-335.9,28.94-72.67Z"/><path class="cls-17" d="M516.24,669.44h-.92L422.69,386.61l21.14-53.07Z"/><path class="cls-18" d="M515.32,669.45h-1L406.26,427.87l16.43-41.26Z"/><path class="cls-19" d="M558.91,271.36l-40,398-.9,0-2-505.77Z"/><path class="cls-20" d="M510.57,669.45H508.8L362.53,537.65l9-22.57Z"/><path class="cls-18" d="M512,669.46h-1.43l-139-154.37,10-25Z"/><path class="cls-21" d="M513.23,669.45H512L381.47,490.09l11.37-28.55Z"/><path class="cls-22" d="M514.34,669.45h-1.11L392.84,461.54l13.42-33.67Z"/><path class="cls-17" d="M696.83,617.6,623.5,642.27l-82.3,25.82c-.79.08-2,.23-2.63.29h0q-2.64.23-5.28.39c-1.11.08-2.24.14-3.37.2-.79,0-1.58.09-2.39.12-.63,0-1.26.07-1.89.08l-1.49.07-1.28,0c-.37,0-.76,0-1.13,0l-1,0h0l-.93,0-.89,0-.9,0h-.87l-.89,0h-7.43L362.53,537.65l-31.41,78.86L265,782.5H762.52Z"/><polygon class="cls-22" points="402.69 422.18 305.86 267.46 393 461 412.31 440.86 402.69 422.18"/></g><rect id="background-2" data-name="background" class="cls-1" width="1024" height="1024"/></g><g id="AB1_Background" data-name="AB1 Background"><g id="Blend"><g class="cls-23"><g class="cls-24"><line class="cls-25" x1="-0.27" y1="52.73" x2="-1468.77" y2="1521.23"/><line class="cls-25" x1="6.79" y1="59.79" x2="-1461.71" y2="1528.29"/><line class="cls-25" x1="13.85" y1="66.85" x2="-1454.65" y2="1535.35"/><line class="cls-25" x1="20.91" y1="73.91" x2="-1447.59" y2="1542.41"/><line class="cls-25" x1="27.97" y1="80.97" x2="-1440.53" y2="1549.47"/><line class="cls-25" x1="35.03" y1="88.03" x2="-1433.47" y2="1556.53"/><line class="cls-25" x1="42.09" y1="95.09" x2="-1426.41" y2="1563.59"/><line class="cls-25" x1="49.15" y1="102.15" x2="-1419.35" y2="1570.65"/><line class="cls-25" x1="56.21" y1="109.21" x2="-1412.29" y2="1577.71"/><line class="cls-25" x1="63.28" y1="116.28" x2="-1405.22" y2="1584.78"/><line class="cls-25" x1="70.34" y1="123.34" x2="-1398.16" y2="1591.84"/><line class="cls-25" x1="77.4" y1="130.4" x2="-1391.1" y2="1598.9"/><line class="cls-25" x1="84.46" y1="137.46" x2="-1384.04" y2="1605.96"/><line class="cls-25" x1="91.52" y1="144.52" x2="-1376.98" y2="1613.02"/><line class="cls-25" x1="98.58" y1="151.58" x2="-1369.92" y2="1620.08"/><line class="cls-25" x1="105.64" y1="158.64" x2="-1362.86" y2="1627.14"/><line class="cls-25" x1="112.7" y1="165.7" x2="-1355.8" y2="1634.2"/><line class="cls-25" x1="119.76" y1="172.76" x2="-1348.74" y2="1641.26"/><line class="cls-25" x1="126.82" y1="179.82" x2="-1341.68" y2="1648.32"/><line class="cls-25" x1="133.88" y1="186.88" x2="-1334.62" y2="1655.38"/><line class="cls-25" x1="140.95" y1="193.95" x2="-1327.55" y2="1662.45"/><line class="cls-25" x1="148.01" y1="201.01" x2="-1320.49" y2="1669.51"/><line class="cls-25" x1="155.07" y1="208.07" x2="-1313.43" y2="1676.57"/><line class="cls-25" x1="162.13" y1="215.13" x2="-1306.37" y2="1683.63"/><line class="cls-25" x1="169.19" y1="222.19" x2="-1299.31" y2="1690.69"/><line class="cls-25" x1="176.25" y1="229.25" x2="-1292.25" y2="1697.75"/><line class="cls-25" x1="183.31" y1="236.31" x2="-1285.19" y2="1704.81"/><line class="cls-25" x1="190.37" y1="243.37" x2="-1278.13" y2="1711.87"/><line class="cls-25" x1="197.43" y1="250.43" x2="-1271.07" y2="1718.93"/><line class="cls-25" x1="204.49" y1="257.49" x2="-1264.01" y2="1725.99"/><line class="cls-25" x1="211.55" y1="264.55" x2="-1256.95" y2="1733.05"/><line class="cls-25" x1="218.62" y1="271.62" x2="-1249.88" y2="1740.12"/><line class="cls-25" x1="225.68" y1="278.68" x2="-1242.82" y2="1747.18"/><line class="cls-25" x1="232.74" y1="285.74" x2="-1235.76" y2="1754.24"/><line class="cls-25" x1="239.8" y1="292.8" x2="-1228.7" y2="1761.3"/><line class="cls-25" x1="246.86" y1="299.86" x2="-1221.64" y2="1768.36"/><line class="cls-25" x1="253.92" y1="306.92" x2="-1214.58" y2="1775.42"/><line class="cls-25" x1="260.98" y1="313.98" x2="-1207.52" y2="1782.48"/><line class="cls-25" x1="268.04" y1="321.04" x2="-1200.46" y2="1789.54"/><line class="cls-25" x1="275.1" y1="328.1" x2="-1193.4" y2="1796.6"/><line class="cls-25" x1="282.16" y1="335.16" x2="-1186.34" y2="1803.66"/><line class="cls-25" x1="289.22" y1="342.22" x2="-1179.28" y2="1810.72"/><line class="cls-25" x1="296.29" y1="349.29" x2="-1172.21" y2="1817.79"/><line class="cls-25" x1="303.35" y1="356.35" x2="-1165.15" y2="1824.85"/><line class="cls-25" x1="310.41" y1="363.41" x2="-1158.09" y2="1831.91"/><line class="cls-25" x1="317.47" y1="370.47" x2="-1151.03" y2="1838.97"/><line class="cls-25" x1="324.53" y1="377.53" x2="-1143.97" y2="1846.03"/><line class="cls-25" x1="331.59" y1="384.59" x2="-1136.91" y2="1853.09"/><line class="cls-25" x1="338.65" y1="391.65" x2="-1129.85" y2="1860.15"/><line class="cls-25" x1="345.71" y1="398.71" x2="-1122.79" y2="1867.21"/><line class="cls-25" x1="352.77" y1="405.77" x2="-1115.73" y2="1874.27"/><line class="cls-25" x1="359.83" y1="412.83" x2="-1108.67" y2="1881.33"/><line class="cls-25" x1="366.89" y1="419.89" x2="-1101.61" y2="1888.39"/><line class="cls-25" x1="373.96" y1="426.96" x2="-1094.54" y2="1895.46"/><line class="cls-25" x1="381.02" y1="434.02" x2="-1087.48" y2="1902.52"/><line class="cls-25" x1="388.08" y1="441.08" x2="-1080.42" y2="1909.58"/><line class="cls-25" x1="395.14" y1="448.14" x2="-1073.36" y2="1916.64"/><line class="cls-25" x1="402.2" y1="455.2" x2="-1066.3" y2="1923.7"/><line class="cls-25" x1="409.26" y1="462.26" x2="-1059.24" y2="1930.76"/><line class="cls-25" x1="416.32" y1="469.32" x2="-1052.18" y2="1937.82"/><line class="cls-25" x1="423.38" y1="476.38" x2="-1045.12" y2="1944.88"/><line class="cls-25" x1="430.44" y1="483.44" x2="-1038.06" y2="1951.94"/><line class="cls-25" x1="437.5" y1="490.5" x2="-1031" y2="1959"/><line class="cls-25" x1="444.57" y1="497.57" x2="-1023.93" y2="1966.07"/><line class="cls-25" x1="451.63" y1="504.63" x2="-1016.87" y2="1973.13"/><line class="cls-25" x1="458.69" y1="511.69" x2="-1009.81" y2="1980.19"/><line class="cls-25" x1="465.75" y1="518.75" x2="-1002.75" y2="1987.25"/><line class="cls-25" x1="472.81" y1="525.81" x2="-995.69" y2="1994.31"/><line class="cls-25" x1="479.87" y1="532.87" x2="-988.63" y2="2001.37"/><line class="cls-25" x1="486.93" y1="539.93" x2="-981.57" y2="2008.43"/><line class="cls-25" x1="493.99" y1="546.99" x2="-974.51" y2="2015.49"/><line class="cls-25" x1="501.05" y1="554.05" x2="-967.45" y2="2022.55"/><line class="cls-25" x1="508.11" y1="561.11" x2="-960.39" y2="2029.61"/><line class="cls-25" x1="515.17" y1="568.17" x2="-953.33" y2="2036.67"/><line class="cls-25" x1="522.24" y1="575.24" x2="-946.26" y2="2043.74"/><line class="cls-25" x1="529.3" y1="582.3" x2="-939.2" y2="2050.8"/><line class="cls-25" x1="536.36" y1="589.36" x2="-932.14" y2="2057.86"/><line class="cls-25" x1="543.42" y1="596.42" x2="-925.08" y2="2064.92"/><line class="cls-25" x1="550.48" y1="603.48" x2="-918.02" y2="2071.98"/><line class="cls-25" x1="557.54" y1="610.54" x2="-910.96" y2="2079.04"/><line class="cls-25" x1="564.6" y1="617.6" x2="-903.9" y2="2086.1"/><line class="cls-25" x1="571.66" y1="624.66" x2="-896.84" y2="2093.16"/><line class="cls-25" x1="578.72" y1="631.72" x2="-889.78" y2="2100.22"/><line class="cls-25" x1="585.78" y1="638.78" x2="-882.72" y2="2107.28"/><line class="cls-25" x1="592.84" y1="645.84" x2="-875.66" y2="2114.34"/><line class="cls-25" x1="599.91" y1="652.91" x2="-868.59" y2="2121.41"/><line class="cls-25" x1="606.97" y1="659.97" x2="-861.53" y2="2128.47"/><line class="cls-25" x1="614.03" y1="667.03" x2="-854.47" y2="2135.53"/><line class="cls-25" x1="621.09" y1="674.09" x2="-847.41" y2="2142.59"/><line class="cls-25" x1="628.15" y1="681.15" x2="-840.35" y2="2149.65"/><line class="cls-25" x1="635.21" y1="688.21" x2="-833.29" y2="2156.71"/><line class="cls-25" x1="642.27" y1="695.27" x2="-826.23" y2="2163.77"/><line class="cls-25" x1="649.33" y1="702.33" x2="-819.17" y2="2170.83"/><line class="cls-25" x1="656.39" y1="709.39" x2="-812.11" y2="2177.89"/><line class="cls-25" x1="663.45" y1="716.45" x2="-805.05" y2="2184.95"/><line class="cls-25" x1="670.51" y1="723.51" x2="-797.99" y2="2192.01"/><line class="cls-25" x1="677.58" y1="730.58" x2="-790.92" y2="2199.08"/><line class="cls-25" x1="684.64" y1="737.64" x2="-783.86" y2="2206.14"/><line class="cls-25" x1="691.7" y1="744.7" x2="-776.8" y2="2213.2"/><line class="cls-25" x1="698.76" y1="751.76" x2="-769.74" y2="2220.26"/><line class="cls-25" x1="705.82" y1="758.82" x2="-762.68" y2="2227.32"/><line class="cls-25" x1="712.88" y1="765.88" x2="-755.62" y2="2234.38"/><line class="cls-25" x1="719.94" y1="772.94" x2="-748.56" y2="2241.44"/><line class="cls-25" x1="727" y1="780" x2="-741.5" y2="2248.5"/><line class="cls-25" x1="734.06" y1="787.06" x2="-734.44" y2="2255.56"/><line class="cls-25" x1="741.12" y1="794.12" x2="-727.38" y2="2262.62"/><line class="cls-25" x1="748.18" y1="801.18" x2="-720.32" y2="2269.68"/><line class="cls-25" x1="755.25" y1="808.25" x2="-713.25" y2="2276.75"/><line class="cls-25" x1="762.31" y1="815.31" x2="-706.19" y2="2283.81"/><line class="cls-25" x1="769.37" y1="822.37" x2="-699.13" y2="2290.87"/><line class="cls-25" x1="776.43" y1="829.43" x2="-692.07" y2="2297.93"/><line class="cls-25" x1="783.49" y1="836.49" x2="-685.01" y2="2304.99"/><line class="cls-25" x1="790.55" y1="843.55" x2="-677.95" y2="2312.05"/><line class="cls-25" x1="797.61" y1="850.61" x2="-670.89" y2="2319.11"/><line class="cls-25" x1="804.67" y1="857.67" x2="-663.83" y2="2326.17"/><line class="cls-25" x1="811.73" y1="864.73" x2="-656.77" y2="2333.23"/><line class="cls-25" x1="818.79" y1="871.79" x2="-649.71" y2="2340.29"/><line class="cls-25" x1="825.86" y1="878.86" x2="-642.64" y2="2347.36"/><line class="cls-25" x1="832.92" y1="885.92" x2="-635.58" y2="2354.42"/><line class="cls-25" x1="839.98" y1="892.98" x2="-628.52" y2="2361.48"/><line class="cls-25" x1="847.04" y1="900.04" x2="-621.46" y2="2368.54"/><line class="cls-25" x1="854.1" y1="907.1" x2="-614.4" y2="2375.6"/><line class="cls-25" x1="861.16" y1="914.16" x2="-607.34" y2="2382.66"/><line class="cls-25" x1="868.22" y1="921.22" x2="-600.28" y2="2389.72"/><line class="cls-25" x1="875.28" y1="928.28" x2="-593.22" y2="2396.78"/><line class="cls-25" x1="882.34" y1="935.34" x2="-586.16" y2="2403.84"/><line class="cls-25" x1="889.4" y1="942.4" x2="-579.1" y2="2410.9"/><line class="cls-25" x1="896.46" y1="949.46" x2="-572.04" y2="2417.96"/><line class="cls-25" x1="903.53" y1="956.53" x2="-564.97" y2="2425.03"/><line class="cls-25" x1="910.59" y1="963.59" x2="-557.91" y2="2432.09"/><line class="cls-25" x1="917.65" y1="970.65" x2="-550.85" y2="2439.15"/><line class="cls-25" x1="924.71" y1="977.71" x2="-543.79" y2="2446.21"/><line class="cls-25" x1="931.77" y1="984.77" x2="-536.73" y2="2453.27"/><line class="cls-25" x1="938.83" y1="991.83" x2="-529.67" y2="2460.33"/><line class="cls-25" x1="945.89" y1="998.89" x2="-522.61" y2="2467.39"/><line class="cls-25" x1="952.95" y1="1005.95" x2="-515.55" y2="2474.45"/><line class="cls-25" x1="960.01" y1="1013.01" x2="-508.49" y2="2481.51"/><line class="cls-25" x1="967.07" y1="1020.07" x2="-501.43" y2="2488.57"/></g></g></g></g></g></svg>