<?xml version="1.0" encoding="utf-8"?>
<!-- Generator: Adobe Illustrator 24.1.0, SVG Export Plug-In . SVG Version: 6.00 Build 0)  -->
<svg version="1.1" id="TickIcon" xmlns="http://www.w3.org/2000/svg" xmlns:xlink="http://www.w3.org/1999/xlink" x="0px" y="0px"
	 viewBox="0 0 1024 1024" style="enable-background:new 0 0 1024 1024;" xml:space="preserve">
<style type="text/css">
	.st0{fill:url(#SVGID_1_);}
	.st1{fill:#3A4347;}
	.st2{fill:url(#SVGID_2_);}
	.st3{fill:#7BB7D0;}
	.st4{fill:#6895A8;}
	.st5{fill:#618A9B;}
	.st6{fill:#5C7F8E;}
	.st7{fill:#485C64;}
</style>
<radialGradient id="SVGID_1_" cx="512" cy="512" r="512" gradientUnits="userSpaceOnUse">
	<stop  offset="0" style="stop-color:#7BB7D0"/>
	<stop  offset="1" style="stop-color:#87CEEB"/>
</radialGradient>
<path class="st0" d="M227.8,0h568.4C922,0,1024,102,1024,227.8v568.4C1024,922,922,1024,796.2,1024H227.8C102,1024,0,922,0,796.2
	V227.8C0,102,102,0,227.8,0z"/>
<polygon class="st1" points="561.4,53.1 455.8,53.1 514.5,723.7 "/>
<linearGradient id="SVGID_2_" gradientUnits="userSpaceOnUse" x1="183.1195" y1="496.6912" x2="848.957" y2="496.6912">
	<stop  offset="0" style="stop-color:#000000"/>
	<stop  offset="1" style="stop-color:#2F2F2F"/>
</linearGradient>
<path class="st2" d="M263.3,133.2L183.6,849c-5,45.1,27.5,85.8,72.6,90.8c3.2,0.4,6.5,0.5,9.7,0.5l501.5-3.8
	c45.4-0.3,81.9-37.4,81.6-82.8c0-3.2-0.2-6.4-0.6-9.6l-40.8-325.6L514.5,723.7L455.8,53.1h-103C306.9,53.1,268.4,87.6,263.3,133.2z"
	/>
<polygon class="st3" points="798.9,449.1 789.2,372 514.5,723.7 "/>
<polygon class="st4" points="789.2,372 774.5,254.6 514.5,723.7 "/>
<path class="st5" d="M774.5,254.6L759.2,132c-1.1-9.1-3.7-18-7.5-26.3l-237.2,618L774.5,254.6z"/>
<path class="st6" d="M751.7,105.7c-14.7-32-46.7-52.6-81.9-52.6H657L514.5,723.7L751.7,105.7z"/>
<polygon class="st7" points="657,53.1 561.4,53.1 514.5,723.7 "/>
</svg>
