<svg xmlns="http://www.w3.org/2000/svg" xmlns:xlink="http://www.w3.org/1999/xlink" viewBox="0 0 497.52 624.5"><defs><style>.cls-1,.cls-23{fill:none;}.cls-10,.cls-11,.cls-12,.cls-13,.cls-14,.cls-15,.cls-16,.cls-17,.cls-18,.cls-19,.cls-2,.cls-20,.cls-3,.cls-4,.cls-5,.cls-6,.cls-7,.cls-8,.cls-9{fill:#fff;}.cls-2{opacity:0.25;}.cls-3{opacity:0.3;}.cls-4{opacity:0.35;}.cls-5{opacity:0.4;}.cls-6{opacity:0.45;}.cls-7{opacity:0.5;}.cls-8{opacity:0.55;}.cls-9{opacity:0.6;}.cls-10{opacity:0.05;}.cls-11{opacity:0.1;}.cls-12{opacity:0.2;}.cls-13{opacity:0.7;}.cls-14{opacity:0.75;}.cls-15{opacity:0.8;}.cls-16{opacity:0.9;}.cls-17{opacity:0.65;}.cls-18{opacity:0.85;}.cls-19{opacity:0.95;}.cls-21{clip-path:url(#clip-path);}.cls-22{opacity:0.14;}.cls-23{stroke:#fff;stroke-miterlimit:10;}</style><clipPath id="clip-path"><rect class="cls-1" x="-1710" y="-1401" width="1024" height="1785"/></clipPath></defs><g id="AB4_Logo" data-name="AB4 Logo"><g id="Logo"><path class="cls-2" d="M409.63,403.87,264.92,511c-.79,0-1.58.09-2.39.12L401.61,383.76Z"/><path class="cls-3" d="M401.61,383.76,262.53,511.09c-.63,0-1.26.07-1.89.08L392.93,362Z"/><path class="cls-4" d="M392.93,362,260.64,511.17l-1.49.07L383.29,337.75Z"/><path class="cls-5" d="M383.29,337.75,259.15,511.24l-1.28,0L372.26,310.07Z"/><path class="cls-6" d="M372.26,310.07,257.87,511.28c-.37,0-.76,0-1.13,0l102.47-234Z"/><path class="cls-7" d="M359.21,277.32l-102.47,234-1,0L343.16,237Z"/><path class="cls-8" d="M343.16,237,255.73,511.35h0l-.93,0L322.43,185Z"/><path class="cls-9" d="M322.43,185h0L254.79,511.37l-.89,0,40-398Z"/><path class="cls-10" d="M431.83,459.6,409.71,467a0,0,0,0,1,0,0l-51.2,17.23-82.6,25.91h0l-2.31.2,151-69,5.1,12.82Z"/><path class="cls-11" d="M424.57,441.36l-151,69h0q-2.64.22-5.28.39l148.92-87.85Z"/><path class="cls-12" d="M417.21,422.92,268.29,510.77c-1.11.08-2.24.14-3.37.2l144.71-107.1Z"/><path class="cls-13" d="M253,511.41h-.87L207.77,102.87v0L248.75,0,251,5.61v0Z"/><path class="cls-14" d="M252.13,511.42l-.89,0-72.41-335.9,28.94-72.67Z"/><path class="cls-15" d="M251.24,511.44h-.92L157.69,228.61l21.14-53.07Z"/><path class="cls-16" d="M250.32,511.45h-1L141.26,269.87l16.43-41.26Z"/><path class="cls-17" d="M293.91,113.36l-40,398-.9,0L251,5.64Z"/><path class="cls-18" d="M245.57,511.45H243.8L97.53,379.65l9-22.57Z"/><path class="cls-16" d="M247,511.46h-1.43l-139-154.37,10-25Z"/><path class="cls-19" d="M248.23,511.45H247L116.47,332.09l11.37-28.55Z"/><path class="cls-20" d="M249.34,511.45h-1.11L127.84,303.54l13.42-33.67Z"/><path class="cls-15" d="M431.83,459.6,358.5,484.27l-82.3,25.82c-.79.08-1.95.23-2.63.29h0q-2.64.22-5.28.39c-1.11.08-2.24.14-3.37.2-.79,0-1.58.09-2.39.12-.63,0-1.26.07-1.89.08l-1.49.07-1.28,0c-.37,0-.76,0-1.13,0l-1,0h0l-.93,0-.89,0-.9,0h-.87l-.89,0h-7.43L97.53,379.65,66.12,458.51,0,624.5H497.52Z"/><polygon class="cls-20" points="137.69 264.18 40.86 109.46 128 303 147.31 282.86 137.69 264.18"/></g></g><g id="AB1_Background" data-name="AB1 Background"><g id="Blend"><g class="cls-21"><g class="cls-22"><line class="cls-23" x1="1.24" y1="-827.76" x2="-1467.26" y2="640.74"/><line class="cls-23" x1="8.3" y1="-820.7" x2="-1460.2" y2="647.8"/><line class="cls-23" x1="15.36" y1="-813.64" x2="-1453.14" y2="654.86"/><line class="cls-23" x1="22.42" y1="-806.58" x2="-1446.08" y2="661.92"/><line class="cls-23" x1="29.48" y1="-799.52" x2="-1439.02" y2="668.98"/><line class="cls-23" x1="36.54" y1="-792.46" x2="-1431.96" y2="676.04"/><line class="cls-23" x1="43.6" y1="-785.4" x2="-1424.9" y2="683.1"/><line class="cls-23" x1="50.66" y1="-778.34" x2="-1417.84" y2="690.16"/><line class="cls-23" x1="57.72" y1="-771.28" x2="-1410.78" y2="697.22"/><line class="cls-23" x1="64.78" y1="-764.22" x2="-1403.72" y2="704.28"/><line class="cls-23" x1="71.84" y1="-757.16" x2="-1396.66" y2="711.34"/><line class="cls-23" x1="78.91" y1="-750.09" x2="-1389.59" y2="718.41"/><line class="cls-23" x1="85.97" y1="-743.03" x2="-1382.53" y2="725.47"/><line class="cls-23" x1="93.03" y1="-735.97" x2="-1375.47" y2="732.53"/><line class="cls-23" x1="100.09" y1="-728.91" x2="-1368.41" y2="739.59"/><line class="cls-23" x1="107.15" y1="-721.85" x2="-1361.35" y2="746.65"/><line class="cls-23" x1="114.21" y1="-714.79" x2="-1354.29" y2="753.71"/><line class="cls-23" x1="121.27" y1="-707.73" x2="-1347.23" y2="760.77"/><line class="cls-23" x1="128.33" y1="-700.67" x2="-1340.17" y2="767.83"/><line class="cls-23" x1="135.39" y1="-693.61" x2="-1333.11" y2="774.89"/><line class="cls-23" x1="142.45" y1="-686.55" x2="-1326.05" y2="781.95"/><line class="cls-23" x1="149.51" y1="-679.49" x2="-1318.99" y2="789.01"/><line class="cls-23" x1="156.58" y1="-672.42" x2="-1311.92" y2="796.08"/><line class="cls-23" x1="163.64" y1="-665.36" x2="-1304.86" y2="803.14"/><line class="cls-23" x1="170.7" y1="-658.3" x2="-1297.8" y2="810.2"/><line class="cls-23" x1="177.76" y1="-651.24" x2="-1290.74" y2="817.26"/><line class="cls-23" x1="184.82" y1="-644.18" x2="-1283.68" y2="824.32"/><line class="cls-23" x1="191.88" y1="-637.12" x2="-1276.62" y2="831.38"/><line class="cls-23" x1="198.94" y1="-630.06" x2="-1269.56" y2="838.44"/><line class="cls-23" x1="206" y1="-623" x2="-1262.5" y2="845.5"/><line class="cls-23" x1="213.06" y1="-615.94" x2="-1255.44" y2="852.56"/><line class="cls-23" x1="220.12" y1="-608.88" x2="-1248.38" y2="859.62"/><line class="cls-23" x1="227.18" y1="-601.82" x2="-1241.32" y2="866.68"/><line class="cls-23" x1="234.25" y1="-594.75" x2="-1234.25" y2="873.75"/><line class="cls-23" x1="241.31" y1="-587.69" x2="-1227.19" y2="880.81"/><line class="cls-23" x1="248.37" y1="-580.63" x2="-1220.13" y2="887.87"/><line class="cls-23" x1="255.43" y1="-573.57" x2="-1213.07" y2="894.93"/><line class="cls-23" x1="262.49" y1="-566.51" x2="-1206.01" y2="901.99"/><line class="cls-23" x1="269.55" y1="-559.45" x2="-1198.95" y2="909.05"/><line class="cls-23" x1="276.61" y1="-552.39" x2="-1191.89" y2="916.11"/><line class="cls-23" x1="283.67" y1="-545.33" x2="-1184.83" y2="923.17"/><line class="cls-23" x1="290.73" y1="-538.27" x2="-1177.77" y2="930.23"/><line class="cls-23" x1="297.79" y1="-531.21" x2="-1170.71" y2="937.29"/><line class="cls-23" x1="304.86" y1="-524.14" x2="-1163.64" y2="944.36"/><line class="cls-23" x1="311.92" y1="-517.08" x2="-1156.58" y2="951.42"/><line class="cls-23" x1="318.98" y1="-510.02" x2="-1149.52" y2="958.48"/><line class="cls-23" x1="326.04" y1="-502.96" x2="-1142.46" y2="965.54"/><line class="cls-23" x1="333.1" y1="-495.9" x2="-1135.4" y2="972.6"/><line class="cls-23" x1="340.16" y1="-488.84" x2="-1128.34" y2="979.66"/><line class="cls-23" x1="347.22" y1="-481.78" x2="-1121.28" y2="986.72"/><line class="cls-23" x1="354.28" y1="-474.72" x2="-1114.22" y2="993.78"/><line class="cls-23" x1="361.34" y1="-467.66" x2="-1107.16" y2="1000.84"/><line class="cls-23" x1="368.4" y1="-460.6" x2="-1100.1" y2="1007.9"/><line class="cls-23" x1="375.46" y1="-453.54" x2="-1093.04" y2="1014.96"/><line class="cls-23" x1="382.53" y1="-446.47" x2="-1085.97" y2="1022.03"/><line class="cls-23" x1="389.59" y1="-439.41" x2="-1078.91" y2="1029.09"/><line class="cls-23" x1="396.65" y1="-432.35" x2="-1071.85" y2="1036.15"/><line class="cls-23" x1="403.71" y1="-425.29" x2="-1064.79" y2="1043.21"/><line class="cls-23" x1="410.77" y1="-418.23" x2="-1057.73" y2="1050.27"/><line class="cls-23" x1="417.83" y1="-411.17" x2="-1050.67" y2="1057.33"/><line class="cls-23" x1="424.89" y1="-404.11" x2="-1043.61" y2="1064.39"/><line class="cls-23" x1="431.95" y1="-397.05" x2="-1036.55" y2="1071.45"/><line class="cls-23" x1="439.01" y1="-389.99" x2="-1029.49" y2="1078.51"/><line class="cls-23" x1="446.07" y1="-382.93" x2="-1022.43" y2="1085.57"/><line class="cls-23" x1="453.13" y1="-375.87" x2="-1015.37" y2="1092.63"/><line class="cls-23" x1="460.2" y1="-368.8" x2="-1008.3" y2="1099.7"/><line class="cls-23" x1="467.26" y1="-361.74" x2="-1001.24" y2="1106.76"/><line class="cls-23" x1="474.32" y1="-354.68" x2="-994.18" y2="1113.82"/><line class="cls-23" x1="481.38" y1="-347.62" x2="-987.12" y2="1120.88"/><line class="cls-23" x1="488.44" y1="-340.56" x2="-980.06" y2="1127.94"/><line class="cls-23" x1="495.5" y1="-333.5" x2="-973" y2="1135"/></g></g></g></g></svg>